<?xml version="1.0" encoding="utf-8"?>
<!-- Generator: Adobe Illustrator 25.3.1, SVG Export Plug-In . SVG Version: 6.00 Build 0)  -->
<svg version="1.1" id="Layer_1" xmlns="http://www.w3.org/2000/svg" xmlns:xlink="http://www.w3.org/1999/xlink" x="0px" y="0px"
	 viewBox="0 0 512 512" style="enable-background:new 0 0 512 512;" xml:space="preserve">
<style type="text/css">
	.st0{fill:#0DE700;}
	.st1{fill:#EB2F70;}
</style>
<rect x="307.2" y="0" class="st0" width="68" height="17.1"/>
<rect x="102.4" y="494.9" class="st1" width="68" height="17.1"/>
<g>
	<g>
		<path d="M264.5,273.1c-4.7,0-8.5,3.8-8.5,8.5V384c0,4.7,3.8,8.5,8.5,8.5h85.3c4.7,0,8.5-3.8,8.5-8.5s-3.8-8.5-8.5-8.5h-76.8v-93.9
			C273.1,276.9,269.2,273.1,264.5,273.1z"/>
		<path d="M170.7,332.8V230.4c0-4.7-3.8-8.5-8.5-8.5H59.7c-4.7,0-8.5,3.8-8.5,8.5s3.8,8.5,8.5,8.5h93.9v85.3h-42.7H59.7
			c-4.7,0-8.5,3.8-8.5,8.5v102.4c0,4.7,3.8,8.5,8.5,8.5s8.5-3.8,8.5-8.5v-93.9h34.1v153.6H34.1c-9.4,0-17.1-7.7-17.1-17.1V290.1
			h93.9c4.7,0,8.5-3.8,8.5-8.5s-3.8-8.5-8.5-8.5H17.1v-85.3h93.9c4.7,0,8.5-3.8,8.5-8.5s-3.8-8.5-8.5-8.5H68.3v-59.7
			c0-4.7-3.8-8.5-8.5-8.5s-8.5,3.8-8.5,8.5v59.7H17.1V34.1c0-9.4,7.7-17.1,17.1-17.1h17.1v42.7c0,4.7,3.8,8.5,8.5,8.5h42.7V128
			c0,4.7,3.8,8.5,8.5,8.5s8.5-3.8,8.5-8.5V59.7c0-4.7-3.8-8.5-8.5-8.5H68.3V17.1h238.9v153.6H170.7V68.3H256v51.2h-34.1v-8.5
			c0-4.7-3.8-8.5-8.5-8.5s-8.5,3.8-8.5,8.5V128c0,4.7,3.8,8.5,8.5,8.5h51.2c4.7,0,8.5-3.8,8.5-8.5V59.7c0-4.7-3.8-8.5-8.5-8.5H162.1
			c-4.7,0-8.5,3.8-8.5,8.5v119.5c0,4.7,3.8,8.5,8.5,8.5h238.9c4.7,0,8.5-3.8,8.5-8.5s-3.8-8.5-8.5-8.5h-76.8V8.5
			c0-4.7-3.8-8.5-8.5-8.5H34.1C15.3,0,0,15.3,0,34.1v443.7C0,496.7,15.3,512,34.1,512h76.8c4.7,0,8.5-3.8,8.5-8.5V341.3h42.7
			C166.8,341.3,170.7,337.5,170.7,332.8z"/>
		<path d="M366.9,136.5c4.7,0,8.5-3.8,8.5-8.5V59.7c0-4.7-3.8-8.5-8.5-8.5s-8.5,3.8-8.5,8.5V128
			C358.4,132.7,362.2,136.5,366.9,136.5z"/>
		<path d="M452.3,341.3c4.7,0,8.5-3.8,8.5-8.5V230.4c0-4.7-3.8-8.5-8.5-8.5H264.5c-4.7,0-8.5,3.8-8.5,8.5s3.8,8.5,8.5,8.5h179.2
			v93.9C443.7,337.5,447.6,341.3,452.3,341.3z"/>
		<path d="M221.9,230.4c0-4.7-3.8-8.5-8.5-8.5s-8.5,3.8-8.5,8.5v102.4c0,4.7,3.8,8.5,8.5,8.5s8.5-3.8,8.5-8.5V230.4z"/>
		<path d="M477.9,0H366.9c-4.7,0-8.5,3.8-8.5,8.5s3.8,8.5,8.5,8.5h110.9c9.4,0,17.1,7.7,17.1,17.1v85.3h-68.3V68.3h25.6
			c4.7,0,8.5-3.8,8.5-8.5s-3.8-8.5-8.5-8.5h-34.1c-4.7,0-8.5,3.8-8.5,8.5V128c0,4.7,3.8,8.5,8.5,8.5h25.6v42.7
			c0,4.7,3.8,8.5,8.5,8.5s8.5-3.8,8.5-8.5v-42.7h34.1v238.9h-42.7c-4.7,0-8.5,3.8-8.5,8.5s3.8,8.5,8.5,8.5h42.7v34.1h-85.3V281.6
			c0-4.7-3.8-8.5-8.5-8.5h-85.3c-4.7,0-8.5,3.8-8.5,8.5v51.2c0,4.7,3.8,8.5,8.5,8.5h34.1c4.7,0,8.5-3.8,8.5-8.5s-3.8-8.5-8.5-8.5
			h-25.6v-34.1h68.3v145.1c0,4.7,3.8,8.5,8.5,8.5h93.9v34.1c0,9.4-7.7,17.1-17.1,17.1H170.7v-51.2h179.2c4.7,0,8.5-3.8,8.5-8.5
			s-3.8-8.5-8.5-8.5H162.1c-4.7,0-8.5,3.8-8.5,8.5v68.3c0,4.7,3.8,8.5,8.5,8.5h315.7c18.8,0,34.1-15.3,34.1-34.1V34.1
			C512,15.3,496.7,0,477.9,0z"/>
		<path d="M213.3,375.5h-51.2c-4.7,0-8.5,3.8-8.5,8.5s3.8,8.5,8.5,8.5h51.2c4.7,0,8.5-3.8,8.5-8.5S218,375.5,213.3,375.5z"/>
	</g>
</g>
</svg>
